# xmcd
#
# Track frame offsets:
#	150
#	13778
#	25556
#	40742
#	55418
#	69384
#	84894
#	100936
#	120618
#	135060
#	145789
#	158364
#	173858
#	189840
#	206056
#	223044
#
# Disc length: 3202 seconds
#
# Revision: 1
# Processed by: cddbd v1.5.2PL0 Copyright (c) Steve Scherf et al.
# Submitted via: audiograbber 1.83.01
#
DISCID=c60c8010
DTITLE=Thom Shepherd - Turning Point
DYEAR=2010
DGENRE=Country
TTITLE0=Priceless
TTITLE1=Take a vacation a day
TTITLE2=The only way he knew how
TTITLE3=Cheaper to keep her
TTITLE4=Aint my day to save the world
TTITLE5=Me, you and EmmyLou
TTITLE6=Rather be happy than right
TTITLE7=Miss that Mississippi
TTITLE8=WalMart flowers
TTITLE9=Your secret's safe with me
TTITLE10=Dogcatcher
TTITLE11=Make it count
TTITLE12=Painting coconuts in Paradise
TTITLE13=The wheels turn slow
TTITLE14=Dying for a living
TTITLE15=Djibouti
EXTD=twangthang@gmail.com
EXTT0=
EXTT1=
EXTT2=
EXTT3=
EXTT4=
EXTT5=
EXTT6=
EXTT7=
EXTT8=
EXTT9=
EXTT10=
EXTT11=
EXTT12=
EXTT13=
EXTT14=
EXTT15=
PLAYORDER=
